<svg version="1.1" xmlns="http://www.w3.org/2000/svg" style="display: block;" viewBox="0 0 2048 2048" width="1024" height="1024" preserveAspectRatio="none" xmlns:c2pa="http://c2pa.org/manifest"><metadata><c2pa:manifest>AAAMZ2p1bWIAAAAeanVtZGMycGEAEQAQgAAAqgA4m3EDYzJwYQAAAAxBanVtYgAAAEdqdW1kYzJtYQARABCAAACqADibcQN1cm46YzJwYTplNDg5ZDI2MC0yMDM4LTQ0MDYtYTBlNS0zMmU0YzYyYTdlNDQAAAAB4mp1bWIAAAApanVtZGMyYXMAEQAQgAAAqgA4m3EDYzJwYS5hc3NlcnRpb25zAAAAAO1qdW1iAAAAQWp1bWRjYm9yABEAEIAAAKoAOJtxE2MycGEuYWN0aW9ucy52MgAAAAAYYzJzaGvYcpchwZJTmoXZs81yHrIAAACkY2JvcqFnYWN0aW9uc4GjZmFjdGlvbmxjMnBhLmNyZWF0ZWRxZGlnaXRhbFNvdXJjZVR5cGV4Rmh0dHA6Ly9jdi5pcHRjLm9yZy9uZXdzY29kZXMvZGlnaXRhbHNvdXJjZXR5cGUvdHJhaW5lZEFsZ29yaXRobWljTWVkaWFrZGVzY3JpcHRpb252Q3JlYXRlZCBieSBSZWNyYWZ0IEFJLgAAAMRqdW1iAAAAQGp1bWRjYm9yABEAEIAAAKoAOJtxE2MycGEuaGFzaC5kYXRhAAAAABhjMnNoYiazeBxsem3qJS0aMhd+PQAAAHxjYm9ypWpleGNsdXNpb25zgaJlc3RhcnQY22ZsZW5ndGgZEIxkbmFtZW5qdW1iZiBtYW5pZmVzdGNhbGdmc2hhMjU2ZGhhc2hYICKFA8KpAto+wxgybosB8sBFZBJHF3y4ykU3lc77uaP8Y3BhZEkAAAAAAAAAAAAAAAI0anVtYgAAACdqdW1kYzJjbAARABCAAACqADibcQNjMnBhLmNsYWltLnYyAAAAAgVjYm9ypmppbnN0YW5jZUlEeCx4bXA6aWlkOjNjMTJhNGYwLWUwMTctNDNjZC1hOTQ5LTgxYTlkNjRjYzA5ZHRjbGFpbV9nZW5lcmF0b3JfaW5mb6NkbmFtZWpyZWNyYWZ0LmFpZ3ZlcnNpb254KDgxY2U4MmUyYzVjM2NiZmJlOGM2ZmJlMTc5ZDVmOGQ5MWM0MDljZTF3b3JnLmNvbnRlbnRhdXRoLmMycGFfcnNmMC45MC43aXNpZ25hdHVyZXhNc2VsZiNqdW1iZj0vYzJwYS91cm46YzJwYTplNDg5ZDI2MC0yMDM4LTQ0MDYtYTBlNS0zMmU0YzYyYTdlNDQvYzJwYS5zaWduYXR1cmVyY3JlYXRlZF9hc3NlcnRpb25zgqJjdXJseCpzZWxmI2p1bWJmPWMycGEuYXNzZXJ0aW9ucy9jMnBhLmFjdGlvbnMudjJkaGFzaFggmzk6Ma4pzCy3FqPqUXPWAIejkKNy5XXAAW4BfgfyFBOiY3VybHgpc2VsZiNqdW1iZj1jMnBhLmFzc2VydGlvbnMvYzJwYS5oYXNoLmRhdGFkaGFzaFggiY9/jDLS/DzCvVLSpi9OdQ9inGL2MacUXoo+f2ZwnfRoZGM6dGl0bGV4GlJlY3JhZnQgQUkgR2VuZXJhdGVkIEltYWdlY2FsZ2ZzaGEyNTYAAAfcanVtYgAAAChqdW1kYzJjcwARABCAAACqADibcQNjMnBhLnNpZ25hdHVyZQAAAAesY2JvctKEWQOwogEmGCGCWQHnMIIB4zCCAYmgAwIBAgIJALfeWmNDUW56MAoGCCqGSM49BAMCMEAxHzAdBgNVBAMMFlJlY3JhZnQgU3RhZ2luZyBEZXYgQ0ExEDAOBgNVBAoMB1JlY3JhZnQxCzAJBgNVBAYTAlVTMB4XDTI2MDYxMjE5NDM1MFoXDTI3MDYxMjE5NDM1MFowNzELMAkGA1UEBhMCVVMxEzARBgNVBAoTClJlY3JhZnQgQUkxEzARBgNVBAMTCnJlY3JhZnQuYWkwWTATBgcqhkjOPQIBBggqhkjOPQMBBwNCAARKaTVbACsg/DeG3LeOxYdID/VA6EFG73E6Oknb+KIiCFJygRUz4ueN2z/t2qYb6CIUvS8RvgOiiClfoqsYtw81o3UwczAMBgNVHRMBAf8EAjAAMA4GA1UdDwEB/wQEAwIGwDATBgNVHSUEDDAKBggrBgEFBQcDBDAdBgNVHQ4EFgQULzHpBen96SL1y4IPHa8MkMshXf0wHwYDVR0jBBgwFoAUAgsqOBrKqpdK//m/kxZo7ZR4ebcwCgYIKoZIzj0EAwIDSAAwRQIgU8hKW0aXvvk8SQgVFNkax69Ym9ae8GsT2RZTQw+B51ACIQC0D4BkEoRD4N0r2ZRkNy0HZaW3WICy/QZGN95ilF4yzFkBvTCCAbkwggFfoAMCAQICCQCc+Wg7T6ATbzAKBggqhkjOPQQDAjBAMR8wHQYDVQQDDBZSZWNyYWZ0IFN0YWdpbmcgRGV2IENBMRAwDgYDVQQKDAdSZWNyYWZ0MQswCQYDVQQGEwJVUzAeFw0yNjA2MTIxOTQwMTZaFw0yODA2MTExOTQwMTZaMEAxHzAdBgNVBAMMFlJlY3JhZnQgU3RhZ2luZyBEZXYgQ0ExEDAOBgNVBAoMB1JlY3JhZnQxCzAJBgNVBAYTAlVTMFkwEwYHKoZIzj0CAQYIKoZIzj0DAQcDQgAEQ9IQBlcVbKaKPYrQSfOhL/00s7xUDC7RinIuLO/I1k99y9yh6oWF9kPxaP+tx1v1PeOL3yrVquJ730H0ZGiDyqNCMEAwDwYDVR0TAQH/BAUwAwEB/zAOBgNVHQ8BAf8EBAMCAYYwHQYDVR0OBBYEFAILKjgayqqXSv/5v5MWaO2UeHm3MAoGCCqGSM49BAMCA0gAMEUCIFQwNImLlYDeQhjgF+ZiqTbgcuzSqmOJw3Q2lQ/hu83FAiEA9O8cLm/xfoVLqB4jtdbuHzi3WL+p2RN+DRGkwpYswVuhY3BhZFkDpAAAAAAAAAAAAAAAAAAAAAAAAAAAAAAAAAAAAAAAAAAAAAAAAAAAAAAAAAAAAAAAAAAAAAAAAAAAAAAAAAAAAAAAAAAAAAAAAAAAAAAAAAAAAAAAAAAAAAAAAAAAAAAAAAAAAAAAAAAAAAAAAAAAAAAAAAAAAAAAAAAAAAAAAAAAAAAAAAAAAAAAAAAAAAAAAAAAAAAAAAAAAAAAAAAAAAAAAAAAAAAAAAAAAAAAAAAAAAAAAAAAAAAAAAAAAAAAAAAAAAAAAAAAAAAAAAAAAAAAAAAAAAAAAAAAAAAAAAAAAAAAAAAAAAAAAAAAAAAAAAAAAAAAAAAAAAAAAAAAAAAAAAAAAAAAAAAAAAAAAAAAAAAAAAAAAAAAAAAAAAAAAAAAAAAAAAAAAAAAAAAAAAAAAAAAAAAAAAAAAAAAAAAAAAAAAAAAAAAAAAAAAAAAAAAAAAAAAAAAAAAAAAAAAAAAAAAAAAAAAAAAAAAAAAAAAAAAAAAAAAAAAAAAAAAAAAAAAAAAAAAAAAAAAAAAAAAAAAAAAAAAAAAAAAAAAAAAAAAAAAAAAAAAAAAAAAAAAAAAAAAAAAAAAAAAAAAAAAAAAAAAAAAAAAAAAAAAAAAAAAAAAAAAAAAAAAAAAAAAAAAAAAAAAAAAAAAAAAAAAAAAAAAAAAAAAAAAAAAAAAAAAAAAAAAAAAAAAAAAAAAAAAAAAAAAAAAAAAAAAAAAAAAAAAAAAAAAAAAAAAAAAAAAAAAAAAAAAAAAAAAAAAAAAAAAAAAAAAAAAAAAAAAAAAAAAAAAAAAAAAAAAAAAAAAAAAAAAAAAAAAAAAAAAAAAAAAAAAAAAAAAAAAAAAAAAAAAAAAAAAAAAAAAAAAAAAAAAAAAAAAAAAAAAAAAAAAAAAAAAAAAAAAAAAAAAAAAAAAAAAAAAAAAAAAAAAAAAAAAAAAAAAAAAAAAAAAAAAAAAAAAAAAAAAAAAAAAAAAAAAAAAAAAAAAAAAAAAAAAAAAAAAAAAAAAAAAAAAAAAAAAAAAAAAAAAAAAAAAAAAAAAAAAAAAAAAAAAAAAAAAAAAAAAAAAAAAAAAAAAAAAAAAAAAAAAAAAAAAAAAAAAAAAAAAAAAAAAAAAAAAAAAAAAAAAAAAAAAAAAAAAAAAAAAAAAAAAAAAAAAAAAAAAAAAAAAAAAAAAAAAAAAAAAAAAAAAAAAAAAAAAAAAAAAAAAAAAAAAAAAAAAAAAAAAAAAAAAAAAAAAA9lhAzW1ITTczNhCps5U/ARvdpxJm3kAkGz+H5wIqTHYYXuW7jjKUogJ+x0HAhCFcqkUWZwWKscCD9HyA7EQpMRpY/A==</c2pa:manifest></metadata>
<defs>
	<linearGradient id="Gradient1" gradientUnits="userSpaceOnUse" x1="1241.94" y1="681.441" x2="1107.96" y2="688.841">
		<stop class="stop0" offset="0" stop-opacity="0" stop-color="rgb(255,255,255)"/>
		<stop class="stop1" offset="1" stop-opacity="0.0313725" stop-color="rgb(255,255,255)"/>
	</linearGradient>
</defs>
<path transform="translate(0,0)" fill="rgb(0,212,255)" d="M 1224.26 226.51 C 1236.13 226.417 1255.58 224.892 1264.28 233.451 C 1277.53 246.489 1273.61 273.623 1274.15 290.601 C 1275.07 319.083 1272.9 348.793 1274.99 376.993 C 1310.67 376.901 1346.41 378.01 1382.1 377.61 C 1395.89 377.679 1410.43 375.793 1421.41 386.053 C 1435.01 398.761 1431.51 422.65 1431.5 440.177 L 1431.53 501.122 L 1431.59 719.81 L 1431.72 1231.18 L 1431.82 1431 C 1431.76 1471.39 1430.73 1513.86 1431.74 1554.09 C 1449.96 1554.07 1485.23 1551.09 1498.85 1562.04 C 1503.44 1565.68 1506.64 1570.8 1507.89 1576.53 C 1510.33 1587.35 1508.66 1600.93 1509.15 1611.94 C 1510.27 1637.07 1507.45 1673.43 1509.82 1697.64 L 1509.96 1698.88 C 1562.41 1699.68 1615.81 1699.2 1668.35 1699.19 L 1707.05 1699.12 C 1720.58 1698.98 1734.81 1696.65 1746.08 1706.07 C 1766.02 1722.74 1757.25 1759.88 1729.8 1760.8 C 1703.36 1761.69 1676.24 1761.42 1649.6 1761.49 L 1469.23 1761.42 L 823.25 1761.85 L 472.927 1761.95 L 374.186 1762.05 C 354.938 1762.04 334.479 1762.99 315.483 1760.2 C 302.45 1758.28 292.248 1741.59 292.868 1728.95 C 293.347 1720.31 297.246 1712.2 303.704 1706.43 C 314.7 1696.75 338.336 1699.07 352.635 1699.05 L 406.887 1699.13 C 449.217 1699.27 499.703 1698.02 540.978 1699.64 C 541.944 1677.54 541.889 1640.01 541.061 1618.3 C 538.149 1541.89 561.345 1555.67 619.913 1553.84 C 618.945 1532.04 619.69 1505.58 619.696 1483.33 L 619.88 1347.19 L 619.625 989.8 L 619.144 626.241 C 618.748 576.662 618.636 527.08 618.809 477.5 C 618.883 455.058 618.902 432.495 619.262 410.06 C 619.44 398.99 621.845 392.032 630.367 384.496 C 634.696 380.635 640.051 378.11 645.784 377.227 C 651.173 376.365 683.363 376.813 690.416 376.967 C 718.175 377.574 747.88 376.525 775.427 377.582 C 776.318 344.197 775.338 310.655 775.72 276.99 C 775.939 257.746 774.67 231.901 800.777 228.113 C 815.457 225.983 832.981 226.967 848.075 226.965 L 927.706 226.87 L 1224.26 226.51 z M 681.344 438.12 C 679.536 502.179 680.809 572.805 680.752 637.514 L 680.902 1048.99 L 680.777 1380.55 L 680.823 1491.53 C 680.839 1511.29 680.299 1534.49 681.206 1554.01 C 827.947 1556.2 979.475 1555.12 1126.5 1555.04 C 1206.73 1555.02 1288.93 1555.98 1369 1554.94 L 1368.9 438.09 L 1084.73 437.905 C 1032.03 437.27 979.332 437.125 926.631 437.47 C 871.567 438.163 816.496 438.295 761.429 437.866 C 739.478 437.789 701.79 436.433 681.344 438.12 z M 989.514 1618.93 C 973.354 1617.38 946.783 1618.26 929.48 1618.21 L 814.813 1617.99 L 675.522 1618.1 C 654.866 1618.12 623.547 1617.2 603.714 1618.38 L 601.63 1619.33 C 600.111 1627.24 600.701 1687.66 601.123 1698.58 C 668.925 1700.82 745.72 1699.02 814.153 1699.02 L 926.907 1699.11 C 946.744 1699.14 969.264 1699.71 988.785 1698.88 C 989.566 1692.13 989.558 1684.14 989.349 1677.29 C 988.758 1657.92 989.832 1638.24 989.514 1618.93 z M 1059.91 1618.39 L 1056.4 1619.38 C 1054.98 1641.4 1056.16 1675.81 1056.4 1698.78 C 1106.93 1699.26 1157.46 1699.36 1207.99 1699.08 L 1447.96 1699.03 C 1448.34 1698.54 1448.72 1698.04 1449.1 1697.55 C 1448.89 1676.54 1450.16 1638.3 1449.31 1618.52 C 1421.06 1617.74 1391.28 1618.29 1362.86 1618.22 L 1214.7 1617.85 L 1113.74 1618.02 C 1097.52 1618.07 1075.6 1617.45 1059.91 1618.39 z M 837.266 286.986 C 836.72 313.759 836.679 350.259 838.091 377.08 C 960.169 380.191 1090.19 377.862 1212.69 377.731 C 1210.28 354.253 1212.7 312.493 1212.05 287.314 L 837.266 286.986 z"/>
<path transform="translate(0,0)" fill="rgb(0,212,255)" d="M 1082.52 529.361 C 1110.78 527.63 1156.34 528.954 1185.69 528.898 L 1238.73 528.804 C 1251.85 528.773 1271.15 526.938 1282.56 533.403 C 1300.88 543.779 1297.58 569.692 1297.77 588.036 L 1297.89 662.264 L 1297.99 756.99 C 1298 774.837 1298.16 792.48 1297.59 810.323 C 1297 828.521 1288.33 837.8 1270.25 840.973 L 1145.36 841.126 C 1125.99 841.121 1082.48 844.01 1065.54 835.978 C 1050.5 828.85 1052.71 797.315 1052.53 781.493 C 1052.28 757.287 1052.15 733.081 1052.14 708.874 L 1052.07 616.358 C 1052.06 598.453 1051.89 580.731 1052.67 562.835 C 1053.52 543.179 1062.45 532.237 1082.52 529.361 z M 1111.95 783.537 C 1151.95 782.826 1195.41 782.432 1235.25 783.105 L 1239.04 783.027 C 1240.6 780.155 1240.11 607.029 1239.93 588.957 C 1199.82 588.494 1159.7 588.332 1119.58 588.471 C 1116.29 588.801 1113.89 588.414 1111.76 590.112 C 1110.51 652.599 1111.91 720.585 1111.95 783.537 z"/>
<path transform="translate(0,0)" fill="url(#Gradient1)" d="M 1119.58 588.471 C 1159.7 588.332 1199.82 588.494 1239.93 588.957 C 1240.11 607.029 1240.6 780.155 1239.04 783.027 L 1235.25 783.105 C 1195.41 782.432 1151.95 782.826 1111.95 783.537 C 1111.91 720.585 1110.51 652.599 1111.76 590.112 C 1113.89 588.414 1116.29 588.801 1119.58 588.471 z M 1140.51 693.27 L 1140.93 694.762 C 1141.16 696.099 1141.64 699.961 1142.94 696.536 C 1143.96 693.837 1140.27 682.032 1141.37 680.681 C 1141.63 680.876 1141.88 681.072 1142.14 681.267 C 1142.26 681.321 1142.37 681.374 1142.49 681.428 C 1143.12 680.861 1141.51 672.099 1142.31 669.455 C 1142.98 667.245 1144.64 655.019 1144.27 653.351 C 1143.03 647.789 1147.17 643.817 1144.58 640.219 C 1144.55 639.494 1144.53 638.77 1144.51 638.045 C 1133.89 650.258 1133.8 662.263 1135.12 678.001 C 1135.46 681.952 1135.49 689.534 1136.73 693.08 C 1136.81 693.056 1136.89 693.032 1136.97 693.009 C 1137.58 691.33 1135.51 684.098 1140.38 687.408 C 1140.64 687.583 1140.51 692.566 1140.51 693.27 z"/>
<path transform="translate(0,0)" fill="rgb(254,254,254)" fill-opacity="0.0784314" d="M 1144.51 638.045 C 1144.53 638.77 1144.55 639.494 1144.58 640.219 C 1147.17 643.817 1143.03 647.789 1144.27 653.351 C 1144.64 655.019 1142.98 667.245 1142.31 669.455 C 1141.51 672.099 1143.12 680.861 1142.49 681.428 C 1142.37 681.374 1142.26 681.321 1142.14 681.267 C 1141.88 681.072 1141.63 680.876 1141.37 680.681 C 1140.27 682.032 1143.96 693.837 1142.94 696.536 C 1141.64 699.961 1141.16 696.099 1140.93 694.762 L 1140.51 693.27 C 1140.51 692.566 1140.64 687.583 1140.38 687.408 C 1135.51 684.098 1137.58 691.33 1136.97 693.009 C 1136.89 693.032 1136.81 693.056 1136.73 693.08 C 1135.49 689.534 1135.46 681.952 1135.12 678.001 C 1133.8 662.263 1133.89 650.258 1144.51 638.045 z"/>
<path transform="translate(0,0)" fill="rgb(0,212,255)" d="M 784.225 529.199 C 812.891 527.387 849.457 529.604 879.204 528.858 C 908.169 529.552 937.821 527.517 966.692 529.095 C 1001.22 530.981 995.887 569.263 995.877 591.669 L 995.872 651.106 L 995.675 755.989 C 995.598 774.773 995.767 793.621 994.939 812.382 C 994.224 828.612 984.945 837.349 969.752 841.024 C 909.139 842.328 847.61 840.903 786.923 841.012 C 751.277 841.076 755.702 807.177 755.441 781.775 C 755.192 755.025 755.098 728.273 755.157 701.522 L 755.148 611.886 C 755.123 594.038 754.673 576.141 755.764 558.329 C 756.885 540.028 767.298 532.319 784.225 529.199 z M 814.096 589.06 C 814.626 653.698 814.712 718.339 814.353 782.979 L 903.763 783.045 L 936.75 783.051 C 936.736 719.54 938.132 652.076 936.714 588.898 L 849.196 588.491 C 837.922 588.623 825.23 588.523 814.096 589.06 z"/>
<path transform="translate(0,0)" fill="rgb(0,212,255)" d="M 1086.68 921.333 C 1096.01 920.716 1112.18 921.155 1121.99 921.151 L 1191.49 921.181 C 1217.39 921.201 1246.49 920.436 1272.33 922.321 C 1276.3 922.611 1282.87 926.407 1286.04 928.952 C 1292.15 933.922 1296.03 941.119 1296.83 948.954 C 1297.96 959.523 1297.61 977.805 1297.66 988.856 L 1297.81 1056.74 L 1297.9 1114.52 C 1297.97 1141.73 1304.05 1176.88 1266.22 1179.05 L 1138.86 1179.29 C 1118.93 1179.34 1097.02 1179.82 1077.07 1178.84 C 1073.5 1178.66 1068.3 1175.95 1065.45 1173.71 C 1058.5 1168.15 1054.06 1160.05 1053.1 1151.2 C 1051.95 1141.33 1052.21 1121.78 1052.23 1111.63 L 1052.43 1046.46 L 1052.51 986.187 C 1052.54 954.314 1046.2 925.62 1086.68 921.333 z M 1112.02 1121.95 C 1150.61 1121.99 1195.37 1120.94 1233.34 1122.52 L 1237.76 1122.33 C 1239.99 1119.22 1238.29 993.604 1237.99 981.06 C 1199.38 980.041 1159.27 980.917 1120.43 980.506 C 1116.75 980.817 1114.58 980.352 1111.97 982.135 C 1111.18 997.858 1111.76 1016.96 1111.8 1033.03 L 1112.02 1121.95 z"/>
<path transform="translate(0,0)" fill="rgb(0,212,255)" d="M 780.55 922.142 C 793.302 921.192 808.853 921.595 821.86 921.613 L 889.066 921.711 L 940.448 921.576 C 950.288 921.55 960.363 921.405 970.171 922.137 C 979.659 922.684 993.857 936.882 994.458 946.296 C 996.009 970.569 995.579 997 995.652 1021.29 L 995.733 1101.4 C 995.718 1117.53 995.863 1133.31 994.922 1149.42 C 993.89 1167.09 985.716 1175.34 968.306 1178.93 C 908.608 1179.8 848.335 1178.67 788.596 1178.82 C 773.712 1178.86 763.378 1174.24 757.995 1159.43 C 756.709 1155.89 756.129 1152.18 755.961 1148.39 C 755.22 1084.19 755.207 1019.9 755.981 955.704 C 756.198 938.087 763.385 927.538 780.55 922.142 z M 814.913 1121 C 850.556 1123.71 896.178 1121.06 933.249 1122.14 L 935.49 1121.59 C 936.693 1116.64 935.912 1106.34 935.873 1100.67 C 935.598 1060.64 936.604 1020.43 935.993 980.415 C 897.361 981.534 856.567 979.242 817.66 980.401 L 814.967 981.109 C 814.2 984.295 814.845 1018.8 814.838 1025.31 L 814.683 1087.28 C 814.651 1096.88 814.128 1111.82 814.913 1121 z"/>
<path transform="translate(0,0)" fill="rgb(0,212,255)" d="M 1080.67 1269.11 C 1124.3 1266.69 1172.17 1269.4 1216.14 1268.93 C 1245.35 1268.62 1248.48 1296.71 1248.08 1319.32 C 1247.39 1358.38 1249.41 1399.07 1247.62 1438.25 C 1247.03 1452.7 1233.93 1462.43 1220.7 1464.94 L 1129.43 1465.15 C 1114.17 1465.18 1098.05 1466.22 1082.86 1464.85 C 1078.24 1464.43 1073.37 1463.42 1069.16 1461.42 C 1062.23 1458.13 1057.37 1450.9 1055.02 1443.81 C 1050.98 1431.56 1052.46 1321.58 1054.07 1302.78 C 1054.56 1297.02 1055.43 1290.42 1058.21 1285.31 C 1063.18 1276.16 1071 1271.81 1080.67 1269.11 z M 1112.2 1333.11 C 1111.69 1356.48 1111.96 1383.36 1112.18 1406.81 C 1125.89 1407.28 1140.2 1406.95 1153.97 1406.95 C 1165.43 1406.87 1176.52 1407.13 1187.99 1406.87 C 1187.76 1382.27 1187.74 1357.67 1187.93 1333.08 C 1174.43 1332.45 1160.92 1332.26 1147.41 1332.51 C 1135.38 1332.56 1124.23 1332.37 1112.2 1333.11 z"/>
<path transform="translate(0,0)" fill="rgb(0,212,255)" d="M 829.857 1269.12 C 838.67 1268.76 848.897 1268.33 859.652 1268.9 C 897.683 1270.92 941.748 1263.92 978.524 1272.53 C 982.757 1273.52 993.488 1288.43 993.784 1292.8 C 996.906 1338.8 994.835 1386 995.315 1432.23 C 995.5 1449.67 987.333 1460.83 970.09 1465.04 C 947.392 1465.03 830.185 1467.69 818.167 1461.85 C 810.8 1458.27 804.352 1449.39 802.298 1441.6 C 799.305 1430.24 800.281 1316.53 802.044 1299.92 C 802.659 1294.12 803.431 1289.21 806.627 1284.18 C 812.194 1275.42 820.039 1271.5 829.857 1269.12 z M 861.049 1406.83 C 884.308 1407.6 912.018 1407.2 935.732 1407.23 C 936.7 1405.98 936.516 1338.86 936.082 1332.37 C 920.13 1333.52 884.092 1332.51 866.925 1332.47 C 866.515 1332.51 860.447 1332.77 860.451 1333.49 C 860.599 1357.59 859.896 1382.78 861.049 1406.83 z"/>
</svg>