<svg version="1.1" xmlns="http://www.w3.org/2000/svg" style="display: block;" viewBox="0 0 2048 2048" width="1024" height="1024" preserveAspectRatio="none" xmlns:c2pa="http://c2pa.org/manifest"><metadata><c2pa:manifest>AAAMZ2p1bWIAAAAeanVtZGMycGEAEQAQgAAAqgA4m3EDYzJwYQAAAAxBanVtYgAAAEdqdW1kYzJtYQARABCAAACqADibcQN1cm46YzJwYToyOGRlNDdiZi05MTAwLTQwZjItYWRjMS03OTRhZTRkMDE2YmIAAAAB4mp1bWIAAAApanVtZGMyYXMAEQAQgAAAqgA4m3EDYzJwYS5hc3NlcnRpb25zAAAAAO1qdW1iAAAAQWp1bWRjYm9yABEAEIAAAKoAOJtxE2MycGEuYWN0aW9ucy52MgAAAAAYYzJzaE4252n3ihyE4Hhm+awkZfEAAACkY2JvcqFnYWN0aW9uc4GjZmFjdGlvbmxjMnBhLmNyZWF0ZWRxZGlnaXRhbFNvdXJjZVR5cGV4Rmh0dHA6Ly9jdi5pcHRjLm9yZy9uZXdzY29kZXMvZGlnaXRhbHNvdXJjZXR5cGUvdHJhaW5lZEFsZ29yaXRobWljTWVkaWFrZGVzY3JpcHRpb252Q3JlYXRlZCBieSBSZWNyYWZ0IEFJLgAAAMRqdW1iAAAAQGp1bWRjYm9yABEAEIAAAKoAOJtxE2MycGEuaGFzaC5kYXRhAAAAABhjMnNouaDCLglGAMczyQb6VY1tuAAAAHxjYm9ypWpleGNsdXNpb25zgaJlc3RhcnQY22ZsZW5ndGgZEIxkbmFtZW5qdW1iZiBtYW5pZmVzdGNhbGdmc2hhMjU2ZGhhc2hYIJkd6tcFEuFax3Zb0mdGwT7mORCO3o2pEg1LoXRdB4FHY3BhZEkAAAAAAAAAAAAAAAI0anVtYgAAACdqdW1kYzJjbAARABCAAACqADibcQNjMnBhLmNsYWltLnYyAAAAAgVjYm9ypmppbnN0YW5jZUlEeCx4bXA6aWlkOjY3ZTFjMzJhLTc3YzEtNDI4Yi05ZGRmLWRiZjg5ZDNiMGZkMXRjbGFpbV9nZW5lcmF0b3JfaW5mb6NkbmFtZWpyZWNyYWZ0LmFpZ3ZlcnNpb254KDgxY2U4MmUyYzVjM2NiZmJlOGM2ZmJlMTc5ZDVmOGQ5MWM0MDljZTF3b3JnLmNvbnRlbnRhdXRoLmMycGFfcnNmMC45MC43aXNpZ25hdHVyZXhNc2VsZiNqdW1iZj0vYzJwYS91cm46YzJwYToyOGRlNDdiZi05MTAwLTQwZjItYWRjMS03OTRhZTRkMDE2YmIvYzJwYS5zaWduYXR1cmVyY3JlYXRlZF9hc3NlcnRpb25zgqJjdXJseCpzZWxmI2p1bWJmPWMycGEuYXNzZXJ0aW9ucy9jMnBhLmFjdGlvbnMudjJkaGFzaFggl8cTmxda+MNW1LrKoQZqN4mhUE8NHRjyJHyOaezru3KiY3VybHgpc2VsZiNqdW1iZj1jMnBhLmFzc2VydGlvbnMvYzJwYS5oYXNoLmRhdGFkaGFzaFggGi37ybEi678yzGfk6DWDiitv7LCtoFzelGkksMJUDWJoZGM6dGl0bGV4GlJlY3JhZnQgQUkgR2VuZXJhdGVkIEltYWdlY2FsZ2ZzaGEyNTYAAAfcanVtYgAAAChqdW1kYzJjcwARABCAAACqADibcQNjMnBhLnNpZ25hdHVyZQAAAAesY2JvctKEWQOwogEmGCGCWQHnMIIB4zCCAYmgAwIBAgIJALfeWmNDUW56MAoGCCqGSM49BAMCMEAxHzAdBgNVBAMMFlJlY3JhZnQgU3RhZ2luZyBEZXYgQ0ExEDAOBgNVBAoMB1JlY3JhZnQxCzAJBgNVBAYTAlVTMB4XDTI2MDYxMjE5NDM1MFoXDTI3MDYxMjE5NDM1MFowNzELMAkGA1UEBhMCVVMxEzARBgNVBAoTClJlY3JhZnQgQUkxEzARBgNVBAMTCnJlY3JhZnQuYWkwWTATBgcqhkjOPQIBBggqhkjOPQMBBwNCAARKaTVbACsg/DeG3LeOxYdID/VA6EFG73E6Oknb+KIiCFJygRUz4ueN2z/t2qYb6CIUvS8RvgOiiClfoqsYtw81o3UwczAMBgNVHRMBAf8EAjAAMA4GA1UdDwEB/wQEAwIGwDATBgNVHSUEDDAKBggrBgEFBQcDBDAdBgNVHQ4EFgQULzHpBen96SL1y4IPHa8MkMshXf0wHwYDVR0jBBgwFoAUAgsqOBrKqpdK//m/kxZo7ZR4ebcwCgYIKoZIzj0EAwIDSAAwRQIgU8hKW0aXvvk8SQgVFNkax69Ym9ae8GsT2RZTQw+B51ACIQC0D4BkEoRD4N0r2ZRkNy0HZaW3WICy/QZGN95ilF4yzFkBvTCCAbkwggFfoAMCAQICCQCc+Wg7T6ATbzAKBggqhkjOPQQDAjBAMR8wHQYDVQQDDBZSZWNyYWZ0IFN0YWdpbmcgRGV2IENBMRAwDgYDVQQKDAdSZWNyYWZ0MQswCQYDVQQGEwJVUzAeFw0yNjA2MTIxOTQwMTZaFw0yODA2MTExOTQwMTZaMEAxHzAdBgNVBAMMFlJlY3JhZnQgU3RhZ2luZyBEZXYgQ0ExEDAOBgNVBAoMB1JlY3JhZnQxCzAJBgNVBAYTAlVTMFkwEwYHKoZIzj0CAQYIKoZIzj0DAQcDQgAEQ9IQBlcVbKaKPYrQSfOhL/00s7xUDC7RinIuLO/I1k99y9yh6oWF9kPxaP+tx1v1PeOL3yrVquJ730H0ZGiDyqNCMEAwDwYDVR0TAQH/BAUwAwEB/zAOBgNVHQ8BAf8EBAMCAYYwHQYDVR0OBBYEFAILKjgayqqXSv/5v5MWaO2UeHm3MAoGCCqGSM49BAMCA0gAMEUCIFQwNImLlYDeQhjgF+ZiqTbgcuzSqmOJw3Q2lQ/hu83FAiEA9O8cLm/xfoVLqB4jtdbuHzi3WL+p2RN+DRGkwpYswVuhY3BhZFkDpAAAAAAAAAAAAAAAAAAAAAAAAAAAAAAAAAAAAAAAAAAAAAAAAAAAAAAAAAAAAAAAAAAAAAAAAAAAAAAAAAAAAAAAAAAAAAAAAAAAAAAAAAAAAAAAAAAAAAAAAAAAAAAAAAAAAAAAAAAAAAAAAAAAAAAAAAAAAAAAAAAAAAAAAAAAAAAAAAAAAAAAAAAAAAAAAAAAAAAAAAAAAAAAAAAAAAAAAAAAAAAAAAAAAAAAAAAAAAAAAAAAAAAAAAAAAAAAAAAAAAAAAAAAAAAAAAAAAAAAAAAAAAAAAAAAAAAAAAAAAAAAAAAAAAAAAAAAAAAAAAAAAAAAAAAAAAAAAAAAAAAAAAAAAAAAAAAAAAAAAAAAAAAAAAAAAAAAAAAAAAAAAAAAAAAAAAAAAAAAAAAAAAAAAAAAAAAAAAAAAAAAAAAAAAAAAAAAAAAAAAAAAAAAAAAAAAAAAAAAAAAAAAAAAAAAAAAAAAAAAAAAAAAAAAAAAAAAAAAAAAAAAAAAAAAAAAAAAAAAAAAAAAAAAAAAAAAAAAAAAAAAAAAAAAAAAAAAAAAAAAAAAAAAAAAAAAAAAAAAAAAAAAAAAAAAAAAAAAAAAAAAAAAAAAAAAAAAAAAAAAAAAAAAAAAAAAAAAAAAAAAAAAAAAAAAAAAAAAAAAAAAAAAAAAAAAAAAAAAAAAAAAAAAAAAAAAAAAAAAAAAAAAAAAAAAAAAAAAAAAAAAAAAAAAAAAAAAAAAAAAAAAAAAAAAAAAAAAAAAAAAAAAAAAAAAAAAAAAAAAAAAAAAAAAAAAAAAAAAAAAAAAAAAAAAAAAAAAAAAAAAAAAAAAAAAAAAAAAAAAAAAAAAAAAAAAAAAAAAAAAAAAAAAAAAAAAAAAAAAAAAAAAAAAAAAAAAAAAAAAAAAAAAAAAAAAAAAAAAAAAAAAAAAAAAAAAAAAAAAAAAAAAAAAAAAAAAAAAAAAAAAAAAAAAAAAAAAAAAAAAAAAAAAAAAAAAAAAAAAAAAAAAAAAAAAAAAAAAAAAAAAAAAAAAAAAAAAAAAAAAAAAAAAAAAAAAAAAAAAAAAAAAAAAAAAAAAAAAAAAAAAAAAAAAAAAAAAAAAAAAAAAAAAAAAAAAAAAAAAAAAAAAAAAAAAAAAAAAAAAAAAAAAAAAAAAAAAAAAAAAAAAAAAAAAAAAAAAAAAAAAAAAAAAAAAAAAAAAAAAAAAAAAAAAAAAAAAAAAAAAAAAAAAAAAAAAAAAAAAAAAA9lhAAyCVwEwBd5tWeXY6CFB2wu/9en5Cz0o87537/Gc0aad2rPrA8WI/W+8pVhyjkkbL8sSGb6T/m4pu29sAn7GIqw==</c2pa:manifest></metadata>
<path transform="translate(0,0)" fill="rgb(0,212,255)" d="M 472.29 345.508 L 1313.16 345.789 L 1551.71 345.822 L 1609.26 345.934 C 1618.5 345.944 1632.57 345.236 1641.27 346.749 C 1657.49 349.571 1668.74 365.037 1668.98 381.481 C 1669.49 416.44 1668.87 451.586 1668.92 486.646 L 1669.23 713.796 C 1669.66 810.675 1669.55 907.555 1668.92 1004.43 C 1668.9 1058.95 1670.38 1122.71 1668.28 1176.77 C 1666.93 1207.34 1663.05 1237.75 1656.68 1267.68 C 1647.82 1310.03 1632.77 1350.7 1614.3 1389.65 C 1559.32 1505.61 1470.57 1574.89 1365.9 1643.84 C 1257.46 1711.66 1150.35 1781.32 1056.16 1868.27 C 1048.07 1875.73 1027.54 1877.41 1018.56 1871.37 C 1006.26 1863.1 995.816 1850.36 984.385 1840.8 C 967.534 1826.41 950.696 1812.25 933.474 1798.4 C 883.266 1758.82 830.931 1722.01 776.703 1688.15 C 701.812 1640.38 626.116 1595.62 562.052 1533.57 C 458.505 1433.27 399.792 1296.83 399.247 1152.73 C 399.022 1093.53 399.112 1033.93 399.089 974.539 L 399.061 626.749 L 399.075 460.003 L 398.975 407.753 C 398.95 389.722 396.077 368.463 410.377 355.015 C 424.239 341.978 453.805 345.393 472.29 345.508 z M 1035.37 1791.62 C 1057.55 1773.94 1079.52 1756.05 1101.69 1738.35 C 1185.37 1671.55 1276.49 1617.19 1365.47 1558.17 C 1397.74 1536.26 1428.44 1514.66 1456.7 1487.63 C 1526.37 1420.99 1571.6 1333.86 1589.27 1239.32 C 1601.42 1174.31 1597.85 1101.66 1598.07 1035.23 L 1599.05 772.766 L 1598.96 535.766 L 1598.62 459.428 C 1598.54 447.046 1598.89 429.773 1597.97 417.657 C 1579.15 416.254 1553.46 417.014 1534.13 417.025 L 1421.4 417.077 L 1074.46 417.019 L 674.457 417.076 L 541.894 417.055 C 520.328 417.054 491.758 416.196 470.912 417.407 C 470.017 430.574 470.78 446.689 470.898 460.207 L 471.041 526.924 L 471.779 763.393 L 471.19 1031 C 471.069 1102.03 467.17 1179.04 482.083 1248.12 C 498.315 1324.75 534.028 1395.91 585.777 1454.73 C 631.835 1507.37 676.631 1537.63 734.402 1575.62 L 840.092 1644.02 C 909.639 1689.31 973.963 1735.43 1035.37 1791.62 z"/>
<path transform="translate(0,0)" fill="rgb(0,212,255)" d="M 1349.14 750.152 C 1350.05 750.048 1350.97 749.956 1351.89 749.877 C 1387.95 746.862 1405.03 786.174 1380.74 811.123 C 1371.2 820.927 1361.41 830.406 1351.66 840.006 C 1334.58 856.821 1317.6 873.745 1300.73 890.777 C 1232.49 959.449 1163.75 1027.63 1094.53 1095.31 C 1063.1 1126.09 1033.02 1158.42 1001.05 1188.76 C 986.891 1202.2 973.997 1217.01 959.036 1229.88 C 949.513 1238.07 931.82 1239.22 921.152 1232.12 C 913.118 1226.1 904.94 1217.02 897.809 1209.75 C 886.74 1198.41 875.609 1187.13 864.417 1175.92 L 729.826 1041.36 C 719.105 1030.83 707.275 1020.25 697.941 1008.52 C 671.428 975.214 717.615 932.936 748.715 961.271 C 755.329 967.297 761.315 973.629 767.609 980.016 L 795.913 1008.2 L 873.553 1085.09 C 893.723 1105.34 918.254 1131.11 939.448 1149.94 C 953.343 1138.51 971.249 1119.86 984.073 1106.77 C 1001.73 1088.63 1019.57 1070.66 1037.57 1052.86 L 1257.16 835.451 C 1277.55 815.271 1325.41 760.545 1349.14 750.152 z"/>
</svg>